<?xml version="1.0" standalone="no"?>
<!DOCTYPE svg PUBLIC "-//W3C//DTD SVG 20010904//EN"
 "http://www.w3.org/TR/2001/REC-SVG-20010904/DTD/svg10.dtd">
<svg version="1.0" xmlns="http://www.w3.org/2000/svg"
 width="100px" height="45px" viewBox="0 0 300.000000 108.000000"
 preserveAspectRatio="xMidYMid meet">
<metadata>
Created by potrace 1.10, written by Peter Selinger 2001-2011
</metadata>
<g transform="translate(0.000000,108.000000) scale(0.100000,-0.100000)"
fill="#000000" stroke="none">
<path d="M2 558 l3 -523 2 518 3 517 1485 0 1485 0 0 -530 0 -530 -1477 -3
-1478 -2 1483 -3 1482 -2 0 540 0 540 -1495 0 -1495 0 2 -522z"/>
<path d="M470 820 c0 -111 2 -129 15 -124 10 4 15 20 15 49 0 35 4 45 20 50
34 11 48 -10 40 -55 -8 -43 -5 -51 14 -44 14 6 16 91 2 112 -5 9 -21 12 -42
10 l-34 -4 0 68 c0 54 -3 68 -15 68 -13 0 -15 -21 -15 -130z"/>
<path d="M1270 928 c-14 -16 -20 -35 -20 -69 0 -29 -5 -49 -12 -52 -10 -4 -9
-8 2 -16 9 -6 13 -23 11 -50 -2 -32 1 -41 13 -41 12 0 16 11 16 45 0 41 2 45
25 45 15 0 25 6 25 14 0 10 -9 14 -27 13 -27 -2 -28 0 -25 42 3 48 16 73 36
65 7 -3 19 2 26 11 21 26 -45 20 -70 -7z"/>
<path d="M1381 924 c-13 -16 -21 -41 -21 -63 0 -21 -6 -43 -12 -50 -10 -11
-10 -14 0 -18 7 -3 12 -23 12 -49 0 -32 4 -44 15 -44 11 0 15 12 15 45 0 41 2
45 25 45 15 0 25 6 25 15 0 11 -5 12 -25 5 -25 -9 -25 -9 -25 44 0 57 15 81
43 70 21 -8 31 -77 24 -160 -4 -50 -2 -64 9 -64 11 0 14 25 14 123 l0 124 -39
1 c-32 2 -44 -3 -60 -24z"/>
<path d="M2184 928 c3 -13 6 -69 6 -126 0 -79 3 -103 13 -99 7 2 12 20 12 42
0 41 21 63 50 52 13 -6 16 -16 13 -50 -4 -60 15 -62 24 -2 9 63 -3 78 -55 73
l-39 -4 4 68 c3 61 2 68 -15 68 -15 0 -18 -5 -13 -22z"/>
<path d="M2670 885 l0 -65 -30 0 c-42 0 -82 -41 -78 -78 4 -35 40 -52 96 -45
l42 6 0 123 c0 104 -2 124 -15 124 -12 0 -15 -14 -15 -65z m-2 -128 l3 -38
-38 3 c-32 2 -39 7 -41 27 -4 29 22 53 53 49 15 -2 21 -12 23 -41z"/>
<path d="M270 865 c0 -10 10 -12 40 -8 l40 6 0 -88 c0 -65 3 -86 13 -82 8 3
12 28 12 78 l0 74 34 5 c69 10 41 25 -49 27 -70 2 -90 -1 -90 -12z"/>
<path d="M796 873 c-13 -13 7 -21 39 -16 l35 6 1 -49 c1 -27 0 -63 -1 -80 -1
-34 14 -53 26 -33 4 7 6 43 5 81 l-2 70 28 -3 c28 -3 53 6 53 19 0 8 -176 13
-184 5z"/>
<path d="M1739 841 c-46 -46 -50 -80 -14 -116 21 -21 33 -25 89 -25 54 0 69 4
85 21 61 66 16 158 -78 159 -37 0 -49 -5 -82 -39z m138 -3 c29 -27 31 -78 3
-103 -26 -23 -117 -17 -137 11 -22 30 -15 61 20 88 39 32 83 33 114 4z"/>
<path d="M626 789 c-30 -36 -31 -38 -10 -67 12 -18 25 -22 63 -22 34 0 51 5
54 15 7 17 -9 30 -18 15 -15 -24 -85 -7 -85 21 0 16 8 19 50 19 51 0 64 12 38
38 -22 22 -65 14 -92 -19z"/>
<path d="M990 760 c0 -46 3 -60 14 -60 11 0 16 14 18 48 3 43 5 47 31 50 44 5
31 22 -18 22 l-45 0 0 -60z"/>
<path d="M1090 773 c0 -72 8 -78 88 -75 l32 2 0 60 c0 48 -3 60 -16 60 -12 0
-15 -9 -14 -37 3 -61 2 -63 -31 -63 l-32 0 5 50 c4 44 3 50 -13 50 -16 0 -19
-8 -19 -47z"/>
<path d="M1523 794 c-27 -30 -28 -42 -7 -72 23 -33 124 -30 124 4 0 16 -16 19
-25 4 -11 -18 -73 -12 -84 9 -14 26 -5 31 51 31 52 0 53 1 38 31 -16 29 -69
25 -97 -7z"/>
<path d="M1948 760 c-3 -53 -1 -60 16 -60 16 0 17 5 12 44 -7 46 1 56 44 56
10 0 22 5 25 10 4 6 -13 10 -44 10 l-49 0 -4 -60z"/>
<path d="M2061 796 c-49 -52 -2 -117 70 -98 44 11 53 37 10 27 -40 -8 -68 1
-74 25 -6 23 26 55 48 47 18 -7 45 1 45 14 0 5 -17 9 -38 9 -28 0 -45 -7 -61
-24z"/>
<path d="M2337 813 c-15 -15 -5 -22 31 -20 45 2 55 -16 13 -24 -39 -8 -61 -26
-61 -49 0 -24 22 -31 75 -23 l45 6 0 46 c0 26 -5 52 -12 59 -13 13 -80 17 -91
5z m80 -70 c7 -19 -44 -40 -60 -24 -9 10 -8 15 8 27 22 17 46 15 52 -3z"/>
<path d="M2470 760 c0 -49 3 -60 16 -60 13 0 16 7 11 39 -6 47 3 64 33 59 13
-1 25 3 27 10 3 8 -9 12 -41 12 l-46 0 0 -60z"/>
<path d="M1095 380 l0 -90 68 0 c38 0 67 4 67 10 0 6 -24 10 -54 10 l-54 0 5
80 c5 74 4 80 -13 80 -18 0 -19 -8 -19 -90z"/>
<path d="M1303 457 c-33 -18 -63 -62 -63 -92 0 -15 11 -36 26 -50 23 -21 37
-25 89 -25 79 0 105 23 105 92 0 38 -5 50 -26 67 -30 24 -96 28 -131 8z m117
-34 c22 -29 22 -72 -1 -100 -18 -21 -92 -16 -123 8 -33 26 -33 56 1 91 37 39
93 39 123 1z"/>
<path d="M1527 452 c-47 -29 -56 -112 -15 -149 14 -13 34 -17 80 -16 33 1 62
4 64 6 3 2 1 22 -4 43 -6 29 -13 40 -30 42 -25 4 -30 -15 -7 -24 8 -4 15 -15
15 -25 0 -30 -83 -27 -104 3 -23 32 -20 65 9 94 20 20 34 25 62 22 22 -2 38 2
40 10 7 19 -77 15 -110 -6z"/>
<path d="M1729 453 c-38 -23 -62 -68 -54 -101 8 -39 52 -62 118 -62 49 0 58 3
81 31 15 17 26 43 26 59 0 16 -11 42 -26 59 -22 27 -32 31 -72 31 -26 0 -59
-8 -73 -17z m121 -25 c24 -26 26 -65 4 -96 -33 -47 -154 -15 -154 41 0 11 12
34 27 49 34 36 92 39 123 6z"/>
</g>
</svg>
